<svg xmlns="http://www.w3.org/2000/svg" viewBox="0 0 1600 700" width="1600" height="700">
  <defs>
    <linearGradient id="nen" x1="0" y1="0" x2="1" y2="1">
      <stop offset="0%" stop-color="#ffffff"/>
      <stop offset="45%" stop-color="#f7f3ff"/>
      <stop offset="100%" stop-color="#efe6ff"/>
    </linearGradient>
    <radialGradient id="quang1" cx="16%" cy="10%" r="55%">
      <stop offset="0%" stop-color="#8b5cf6" stop-opacity=".30"/>
      <stop offset="100%" stop-color="#8b5cf6" stop-opacity="0"/>
    </radialGradient>
    <radialGradient id="quang2" cx="86%" cy="24%" r="52%">
      <stop offset="0%" stop-color="#c026d3" stop-opacity=".20"/>
      <stop offset="100%" stop-color="#c026d3" stop-opacity="0"/>
    </radialGradient>
    <radialGradient id="quang3" cx="50%" cy="98%" r="50%">
      <stop offset="0%" stop-color="#6d28d9" stop-opacity=".16"/>
      <stop offset="100%" stop-color="#6d28d9" stop-opacity="0"/>
    </radialGradient>
    <pattern id="luoi" width="56" height="56" patternUnits="userSpaceOnUse">
      <path d="M56 0H0V56" fill="none" stroke="#7c3aed" stroke-opacity=".07" stroke-width="1"/>
    </pattern>
  </defs>

  <rect width="1600" height="700" fill="url(#nen)"/>
  <rect width="1600" height="700" fill="url(#luoi)"/>
  <rect width="1600" height="700" fill="url(#quang1)"/>
  <rect width="1600" height="700" fill="url(#quang2)"/>
  <rect width="1600" height="700" fill="url(#quang3)"/>

  <g opacity=".55">
    <circle cx="182" cy="140" r="3" fill="#8b5cf6"/>
    <circle cx="368" cy="86" r="2.2" fill="#c084fc"/>
    <circle cx="1420" cy="180" r="2.6" fill="#a78bfa"/>
    <circle cx="1244" cy="98" r="2" fill="#d8b4fe"/>
    <circle cx="1520" cy="470" r="2.4" fill="#c084fc"/>
    <circle cx="96" cy="520" r="2" fill="#a78bfa"/>
    <circle cx="700" cy="60" r="2" fill="#8b5cf6"/>
  </g>

  <path d="M0 700 L0 566 Q400 646 800 596 T1600 546 L1600 700 Z" fill="#7c3aed" fill-opacity=".07"/>
</svg>
