<svg xmlns="http://www.w3.org/2000/svg" viewBox="0 0 1600 700" width="1600" height="700">
  <defs>
    <linearGradient id="nen" x1="0" y1="0" x2="1" y2="1">
      <stop offset="0%" stop-color="#0b1220"/>
      <stop offset="45%" stop-color="#141c33"/>
      <stop offset="100%" stop-color="#1b1233"/>
    </linearGradient>
    <radialGradient id="quang1" cx="18%" cy="12%" r="52%">
      <stop offset="0%" stop-color="#2563eb" stop-opacity=".55"/>
      <stop offset="100%" stop-color="#2563eb" stop-opacity="0"/>
    </radialGradient>
    <radialGradient id="quang2" cx="84%" cy="26%" r="50%">
      <stop offset="0%" stop-color="#7c3aed" stop-opacity=".45"/>
      <stop offset="100%" stop-color="#7c3aed" stop-opacity="0"/>
    </radialGradient>
    <radialGradient id="quang3" cx="52%" cy="96%" r="46%">
      <stop offset="0%" stop-color="#06b6d4" stop-opacity=".28"/>
      <stop offset="100%" stop-color="#06b6d4" stop-opacity="0"/>
    </radialGradient>
    <pattern id="luoi" width="56" height="56" patternUnits="userSpaceOnUse">
      <path d="M56 0H0V56" fill="none" stroke="#ffffff" stroke-opacity=".045" stroke-width="1"/>
    </pattern>
    <linearGradient id="mo" x1="0" y1="0" x2="0" y2="1">
      <stop offset="0%" stop-color="#ffffff" stop-opacity=".16"/>
      <stop offset="100%" stop-color="#ffffff" stop-opacity="0"/>
    </linearGradient>
  </defs>

  <rect width="1600" height="700" fill="url(#nen)"/>
  <rect width="1600" height="700" fill="url(#luoi)"/>
  <rect width="1600" height="700" fill="url(#quang1)"/>
  <rect width="1600" height="700" fill="url(#quang2)"/>
  <rect width="1600" height="700" fill="url(#quang3)"/>

  <g opacity=".5">
    <circle cx="182" cy="140" r="2.5" fill="#93c5fd"/>
    <circle cx="368" cy="86" r="1.8" fill="#c4b5fd"/>
    <circle cx="1420" cy="180" r="2.2" fill="#93c5fd"/>
    <circle cx="1244" cy="98" r="1.6" fill="#a5f3fc"/>
    <circle cx="1520" cy="470" r="2" fill="#c4b5fd"/>
    <circle cx="96" cy="520" r="1.7" fill="#a5f3fc"/>
    <circle cx="700" cy="60" r="1.6" fill="#93c5fd"/>
  </g>

  <g opacity=".85">
    <g transform="translate(150 330) rotate(-8)">
      <rect x="-56" y="-56" width="112" height="112" rx="30" fill="#1e293b" fill-opacity=".85" stroke="#334155" stroke-opacity=".8"/>
      <rect x="-56" y="-56" width="112" height="112" rx="30" fill="url(#mo)"/>
      <text x="0" y="18" font-size="52" text-anchor="middle">📍</text>
    </g>
    <g transform="translate(1450 300) rotate(9)">
      <rect x="-54" y="-54" width="108" height="108" rx="29" fill="#1e293b" fill-opacity=".85" stroke="#334155" stroke-opacity=".8"/>
      <rect x="-54" y="-54" width="108" height="108" rx="29" fill="url(#mo)"/>
      <text x="0" y="17" font-size="50" text-anchor="middle">💱</text>
    </g>
    <g transform="translate(300 585) rotate(6)" opacity=".8">
      <rect x="-46" y="-46" width="92" height="92" rx="25" fill="#1e293b" fill-opacity=".8" stroke="#334155" stroke-opacity=".7"/>
      <text x="0" y="15" font-size="42" text-anchor="middle">🀄️</text>
    </g>
    <g transform="translate(1310 600) rotate(-7)" opacity=".8">
      <rect x="-46" y="-46" width="92" height="92" rx="25" fill="#1e293b" fill-opacity=".8" stroke="#334155" stroke-opacity=".7"/>
      <text x="0" y="15" font-size="42" text-anchor="middle">🏬</text>
    </g>
  </g>

  <path d="M0 700 L0 560 Q400 640 800 590 T1600 540 L1600 700 Z" fill="#000000" fill-opacity=".22"/>
</svg>
