<svg xmlns="http://www.w3.org/2000/svg" viewBox="0 0 1200 760" width="1200" height="760" font-family="-apple-system, BlinkMacSystemFont, 'Segoe UI', Roboto, 'Helvetica Neue', Arial, sans-serif">
<defs>
  <linearGradient id="nenAnh" x1="0" y1="0" x2="1" y2="1">
    <stop offset="0%" stop-color="#f8f5ff"/><stop offset="100%" stop-color="#ece3fb"/>
  </linearGradient>
  <filter id="bong" x="-30%" y="-30%" width="160%" height="160%">
    <feDropShadow dx="0" dy="16" stdDeviation="24" flood-color="#3b2560" flood-opacity="0.22"/>
  </filter>
  <filter id="bongnho" x="-40%" y="-40%" width="180%" height="180%">
    <feDropShadow dx="0" dy="3" stdDeviation="5" flood-color="#3b2560" flood-opacity="0.16"/>
  </filter>
  <clipPath id="manhinh"><rect x="652" y="56" width="316" height="648" rx="34"/></clipPath>
</defs>
<rect width="1200" height="760" fill="url(#nenAnh)"/>
<g>
  <circle cx="96" cy="104" r="34" fill="#7c3aed"/>
  <text x="96" y="116" font-size="34" font-weight="700" fill="#ffffff" text-anchor="middle">4</text>
  <text x="152" y="116" font-size="33" font-weight="700" fill="#241a3d">Viết chữ Hán, chấm từng nét</text>
  <text x="56" y="186" font-size="20.5" fill="#584f6e"><tspan>Viết chữ bằng ngón tay ngay trên màn hình.</tspan></text>
  <text x="56" y="260" font-size="20.5" fill="#584f6e"><tspan>App chấm </tspan><tspan font-weight="700" fill="#241a3d">từng nét theo đúng thứ tự chuẩn</tspan><tspan> —</tspan></text>
  <text x="56" y="297" font-size="20.5" fill="#584f6e"><tspan>viết đúng hình nhưng sai thứ tự vẫn bị báo sai.</tspan></text>
  <text x="56" y="371" font-size="20.5" fill="#584f6e"><tspan>Nghe khắt khe nhưng chính thứ tự nét mới là thứ</tspan></text>
  <text x="56" y="408" font-size="20.5" fill="#584f6e"><tspan>giúp bạn nhớ chữ lâu và viết nhanh về sau.</tspan></text>
</g>
<g filter="url(#bong)">
  <rect x="640" y="44" width="340" height="672" rx="46" fill="#2a2136"/>
  <rect x="646" y="50" width="328" height="660" rx="41" fill="#181022"/>
  <rect x="652" y="56" width="316" height="648" rx="34" fill="#f5f5f6"/>
</g>
<rect x="758.0" y="68" width="104" height="30" rx="15" fill="#181022"/>
<text x="682" y="96" font-size="14" font-weight="600" fill="#1d2430">9:41</text>
<g fill="#1d2430">
  <rect x="896" y="80" width="17" height="11" rx="2.5" opacity="0.85"/>
  <rect x="920" y="79" width="26" height="13" rx="4" fill="none" stroke="#1d2430" stroke-width="1.6" opacity="0.6"/>
  <rect x="923" y="81.5" width="18" height="8" rx="2" opacity="0.85"/>
</g>
<rect x="754.0" y="686" width="112" height="5" rx="2.5" fill="#181022" opacity="0.35"/><g clip-path="url(#manhinh)"><rect x="652" y="104" width="316" height="600" fill="#f5f5f6"/>
  <text x="670" y="148" font-size="26" font-weight="700" fill="#1d2430">Luyện viết</text>
  <text x="670" y="172" font-size="12.5" fill="#66707e">Nét 4 / 8</text>
  <rect x="682" y="194" width="256" height="256" rx="16" fill="#ffffff" stroke="#dcdde0"/>
  <line x1="682" y1="322" x2="938" y2="322" stroke="#dcdde0" stroke-dasharray="5 5"/>
  <line x1="810" y1="194" x2="810" y2="450" stroke="#dcdde0" stroke-dasharray="5 5"/>
  <text x="810" y="384" font-size="150" fill="#dcdde0" text-anchor="middle" opacity="0.5">发</text>
  <path d="M 736 250 L 790 276" stroke="#1d2430" stroke-width="9" stroke-linecap="round"/>
  <path d="M 790 276 L 760 344" stroke="#1d2430" stroke-width="9" stroke-linecap="round"/>
  <path d="M 744 294 L 870 294" stroke="#1d2430" stroke-width="9" stroke-linecap="round"/>
  <path d="M 836 264 L 876 364" stroke="#d14b4b" stroke-width="9" stroke-linecap="round"/>
  <circle cx="836" cy="264" r="11" fill="none" stroke="#d14b4b" stroke-width="3"/>
  <rect x="666" y="468" width="288" height="52" rx="13" fill="#fdf3f3" stroke="#dcdde0"/>
  <text x="680" y="492" font-size="12.5" font-weight="700" fill="#d14b4b">Nét này viết sai thứ tự</text>
  <text x="680" y="510" font-size="11" fill="#66707e">Nét ngang phải viết trước nét sổ</text>
</g>
  <rect x="820" y="250" width="72" height="130" rx="12" fill="none" stroke="#f59e0b" stroke-width="3"/>
</svg>
