<svg xmlns="http://www.w3.org/2000/svg" viewBox="0 0 1200 760" width="1200" height="760" font-family="-apple-system, BlinkMacSystemFont, 'Segoe UI', Roboto, 'Helvetica Neue', Arial, sans-serif">
<defs>
  <linearGradient id="nen" x1="0" y1="0" x2="1" y2="1">
    <stop offset="0%" stop-color="#eef2f8"/><stop offset="100%" stop-color="#dde5f0"/>
  </linearGradient>
  <linearGradient id="tf" x1="0" y1="0" x2="0" y2="1">
    <stop offset="0%" stop-color="#3aa9ff"/><stop offset="100%" stop-color="#0a72e8"/>
  </linearGradient>
  <linearGradient id="appicon" x1="0" y1="0" x2="1" y2="1">
    <stop offset="0%" stop-color="#3b82f6"/><stop offset="100%" stop-color="#7c3aed"/>
  </linearGradient>
  <linearGradient id="as" x1="0" y1="0" x2="1" y2="1">
    <stop offset="0%" stop-color="#2ea7ff"/><stop offset="100%" stop-color="#0b5ed7"/>
  </linearGradient>
  <filter id="bong" x="-30%" y="-30%" width="160%" height="160%">
    <feDropShadow dx="0" dy="16" stdDeviation="24" flood-color="#0f172a" flood-opacity="0.20"/>
  </filter>
  <filter id="bongnho" x="-40%" y="-40%" width="180%" height="180%">
    <feDropShadow dx="0" dy="3" stdDeviation="5" flood-color="#0f172a" flood-opacity="0.16"/>
  </filter>
  <clipPath id="manhinh"><rect x="652" y="56" width="316" height="648" rx="34"/></clipPath>
</defs>
<rect width="1200" height="760" fill="url(#nen)"/>
<g>
  <circle cx="96" cy="104" r="34" fill="#2563eb"/>
  <text x="96" y="116" font-size="34" font-weight="700" fill="#ffffff" text-anchor="middle">5</text>
  <text x="152" y="116" font-size="34" font-weight="700" fill="#0f172a">Cập nhật bản mới</text>
  <text x="56" y="186" font-size="21" fill="#475569"><tspan>Khi tôi ra phiên bản mới, iPhone của bạn</tspan></text>
  <text x="56" y="224" font-size="21" fill="#475569"><tspan>sẽ hiện </tspan><tspan font-weight="700" fill="#0f172a">thông báo từ TestFlight</tspan><tspan>.</tspan></text>
  <text x="56" y="300" font-size="21" fill="#475569"><tspan>Mở TestFlight, bấm </tspan><tspan font-weight="700" fill="#0f172a">CẬP NHẬT</tspan></text>
  <text x="56" y="338" font-size="21" fill="#475569"><tspan>là xong — dữ liệu cũ vẫn giữ nguyên.</tspan></text>
  <text x="56" y="414" font-size="21" fill="#475569"><tspan font-weight="700" fill="#0f172a">Nên bật cập nhật tự động</tspan><tspan> để lần sau</tspan></text>
  <text x="56" y="452" font-size="21" fill="#475569"><tspan>máy tự tải bản mới, không phải làm gì.</tspan></text>
</g>
<g filter="url(#bong)">
  <rect x="640" y="44" width="340" height="672" rx="46" fill="#1b2431"/>
  <rect x="646" y="50" width="328" height="660" rx="41" fill="#0d131c"/>
  <rect x="652" y="56" width="316" height="648" rx="34" fill="#ffffff"/>
</g>
<rect x="758.0" y="68" width="104" height="30" rx="15" fill="#0d131c"/>
<g fill="#1f2937" font-size="14" font-weight="600">
  <text x="682" y="96">9:41</text>
</g>
<g fill="#1f2937">
  <rect x="896" y="80" width="17" height="11" rx="2.5" opacity="0.85"/>
  <rect x="920" y="79" width="26" height="13" rx="4" fill="none" stroke="#1f2937" stroke-width="1.6" opacity="0.6"/>
  <rect x="923" y="81.5" width="18" height="8" rx="2" opacity="0.85"/>
</g>
<rect x="754.0" y="686" width="112" height="5" rx="2.5" fill="#0d131c" opacity="0.35"/>
<g clip-path="url(#manhinh)">
  <rect x="652" y="104" width="316" height="600" fill="#ffffff"/>
  <text x="670" y="148" font-size="27" font-weight="700" fill="#111827">Ứng dụng</text>

  <line x1="668" y1="172" x2="952" y2="172" stroke="#e5e7eb"/>
  
<g filter="url(#bongnho)">
  <rect x="670" y="190" width="62" height="62" rx="13.950000000000001" fill="url(#appicon)"/>
  <rect x="686.12" y="202.4 " width="27.28" height="35.96" rx="3.1" fill="#ffffff" opacity="0.97"/>
  <g fill="#94a3b8">
    <rect x="689.84" y="207.98" width="19.84" height="2.1700000000000004" rx="1.1159999999999999"/>
    <rect x="689.84" y="214.18" width="16.12" height="2.1700000000000004" rx="1.1159999999999999"/>
    <rect x="689.84" y="220.38" width="18.599999999999998" height="2.1700000000000004" rx="1.1159999999999999"/>
  </g>
  <g transform="translate(707.2 217.28) rotate(40)">
    <rect x="0" y="0" width="6.2" height="18.599999999999998" fill="#fbbf24"/>
    <path d="M 0 18.599999999999998 L 6.2 18.599999999999998 L 3.1 23.56 Z" fill="#fde68a"/>
    <path d="M 1.8599999999999999 21.389999999999997 L 4.340000000000001 21.389999999999997 L 3.1 23.56 Z" fill="#1f2937"/>
  </g>
</g>
  <text x="742" y="214" font-size="14" font-weight="600" fill="#111827">Phần Mềm Của Tôi</text>
  <text x="742" y="234" font-size="11.5" fill="#8e8e93">Phiên bản 2.1</text>
  <text x="742" y="252" font-size="11.5" fill="#34c759">vừa phát hành</text>
  
<g>
  <rect x="876" y="244" width="76" height="30" rx="15.0" fill="#0a84ff"/>
  <text x="914.0" y="263.14" font-size="11.5" font-weight="700" fill="#ffffff" text-anchor="middle">CẬP NHẬT</text>
</g>
  <rect x="869" y="237" width="90" height="44" rx="22" fill="none" stroke="#f59e0b" stroke-width="3"/>

  <line x1="668" y1="272" x2="952" y2="272" stroke="#e5e7eb"/>
  <text x="670" y="306" font-size="13" font-weight="600" fill="#8e8e93">CÓ GÌ MỚI</text>
  <rect x="670" y="322" width="280" height="10" rx="5" fill="#e5e7eb"/>
  <rect x="670" y="342" width="230" height="10" rx="5" fill="#e5e7eb"/>
  <rect x="670" y="362" width="190" height="10" rx="5" fill="#e5e7eb"/>

  <line x1="668" y1="400" x2="952" y2="400" stroke="#e5e7eb"/>
  <text x="670" y="436" font-size="15" font-weight="500" fill="#111827">Cập nhật tự động</text>
  <g>
    <rect x="882" y="418" width="60" height="34" rx="17" fill="#34c759"/>
    <circle cx="925" cy="435" r="14.5" fill="#ffffff"/>
  </g>
  <text x="670" y="468" font-size="12" fill="#8e8e93">Máy tự tải bản mới khi có</text>
</g>
<g>
  <path d="M 940 292 l 30 26 l -13 3 l 7 15 l -7 3 l -7 -15 l -10 8 z"
        fill="#0f172a" stroke="#ffffff" stroke-width="2.4" stroke-linejoin="round"/>
</g>

</svg>
