<svg xmlns="http://www.w3.org/2000/svg" viewBox="0 0 1200 760" width="1200" height="760" font-family="-apple-system, BlinkMacSystemFont, 'Segoe UI', Roboto, 'Helvetica Neue', Arial, sans-serif">
<defs>
  <linearGradient id="nen2" x1="0" y1="0" x2="1" y2="1"><stop offset="0%" stop-color="#eef4ff"/><stop offset="100%" stop-color="#dbe6ff"/></linearGradient>
  <linearGradient id="xanh2" x1="0" y1="0" x2="1" y2="0"><stop offset="0%" stop-color="#0b5fff"/><stop offset="100%" stop-color="#3d84ff"/></linearGradient>
  <filter id="bong2" x="-30%" y="-30%" width="160%" height="160%"><feDropShadow dx="0" dy="16" stdDeviation="24" flood-color="#0a2a6b" flood-opacity="0.22"/></filter>
</defs>
<rect width="1200" height="760" fill="url(#nen2)"/>

<circle cx="96" cy="104" r="34" fill="url(#xanh2)"/>
<text x="96" y="116" font-size="30" text-anchor="middle">🔑</text>
<text x="152" y="112" font-size="33" font-weight="700" fill="#0a1f4d">Ba bước là xong, mất chưa tới một phút</text>

<g filter="url(#bong2)">
  <rect x="56" y="176" width="470" height="152" rx="18" fill="#ffffff"/>
  <circle cx="106" cy="228" r="24" fill="url(#xanh2)"/>
  <text x="106" y="236" font-size="21" font-weight="700" fill="#ffffff" text-anchor="middle">1</text>
  <text x="150" y="222" font-size="21" font-weight="700" fill="#0a1f4d">Mua mã trên website</text>
  <text x="150" y="256" font-size="17.5" fill="#5b6b8f">Nạp tiền vào tài khoản rồi bấm mua.</text>
  <text x="150" y="282" font-size="17.5" fill="#5b6b8f">Mã hiện ra ngay, không phải chờ ai gửi.</text>
  <text x="150" y="308" font-size="16" fill="#8b98b8">Chép mã bằng nút chép cạnh ô.</text>
</g>

<g filter="url(#bong2)">
  <rect x="56" y="348" width="470" height="152" rx="18" fill="#ffffff"/>
  <circle cx="106" cy="400" r="24" fill="url(#xanh2)"/>
  <text x="106" y="408" font-size="21" font-weight="700" fill="#ffffff" text-anchor="middle">2</text>
  <text x="150" y="394" font-size="21" font-weight="700" fill="#0a1f4d">Cài app và dán mã</text>
  <text x="150" y="428" font-size="17.5" fill="#5b6b8f">Mở app, dán mã vào ô rồi bấm Kích hoạt.</text>
  <text x="150" y="454" font-size="17.5" fill="#5b6b8f">App tự tải danh sách máy chủ về.</text>
  <text x="150" y="480" font-size="16" fill="#8b98b8">Mã có dạng LAM-XXXX-XXXX-XXXX</text>
</g>

<g filter="url(#bong2)">
  <rect x="56" y="520" width="470" height="152" rx="18" fill="#ffffff"/>
  <circle cx="106" cy="572" r="24" fill="url(#xanh2)"/>
  <text x="106" y="580" font-size="21" font-weight="700" fill="#ffffff" text-anchor="middle">3</text>
  <text x="150" y="566" font-size="21" font-weight="700" fill="#0a1f4d">Bấm nút tròn để nối</text>
  <text x="150" y="600" font-size="17.5" fill="#5b6b8f">Lần đầu máy sẽ hỏi cho phép cấu hình VPN —</text>
  <text x="150" y="626" font-size="17.5" fill="#5b6b8f">bấm Cho phép. Chỉ hỏi đúng một lần.</text>
  <text x="150" y="652" font-size="16" fill="#8b98b8">Nút chuyển xanh là xong.</text>
</g>

<g filter="url(#bong2)">
  <rect x="646" y="176" width="360" height="496" rx="46" fill="#0a1230"/>
  <rect x="660" y="190" width="332" height="468" rx="36" fill="#f6f8ff"/>
  <rect x="782" y="202" width="88" height="20" rx="10" fill="#0a1230"/>

  <circle cx="826" cy="288" r="38" fill="#e6efff"/>
  <text x="826" y="301" font-size="34" text-anchor="middle">🛡️</text>
  <text x="826" y="360" font-size="22" font-weight="700" fill="#0a1f4d" text-anchor="middle">Kích hoạt LamVPN</text>
  <text x="826" y="392" font-size="16" fill="#5b6b8f" text-anchor="middle">Nhập mã bạn đã mua trên website</text>

  <rect x="694" y="424" width="264" height="58" rx="14" fill="#ffffff" stroke="#0b5fff" stroke-width="2.5"/>
  <text x="826" y="461" font-size="20" font-weight="700" fill="#0a1f4d" text-anchor="middle" letter-spacing="1.5">LAM-4YBM-GB8S-LVHS</text>

  <rect x="694" y="502" width="264" height="54" rx="14" fill="url(#xanh2)"/>
  <text x="826" y="536" font-size="19" font-weight="700" fill="#ffffff" text-anchor="middle">Kích hoạt</text>

  <text x="826" y="596" font-size="15" fill="#8b98b8" text-anchor="middle">Chưa có mã?</text>
  <text x="826" y="622" font-size="15" font-weight="700" fill="#0b5fff" text-anchor="middle">Mua tại phanmemtq.com</text>
</g>
</svg>
